<svg xmlns="http://www.w3.org/2000/svg" viewBox="0 0 623.62 255.12"><defs><style>.cls-1{fill:#fff;}.cls-2{fill:#007d9f;}.cls-3{fill:#d2db2f;}.cls-4{fill:#828889;}</style></defs><title>extrategy</title><g id="BG"><rect class="cls-1" width="623.62" height="255.12"/></g><g id="Logo"><g id="Page-1"><g id="logo_extrategy_2col_ist" data-name="logo extrategy 2col ist"><polyline id="Fill-1" class="cls-2" points="150.31 72.14 130.35 72.14 90.31 136.96 109.89 136.96 150.31 72.14"/><path id="Fill-2" class="cls-2" d="M68.64,90.94c-1.43-3.11-4.8-8.3-13.22-8.3a15.87,15.87,0,0,0-6.49,1.17c-7.25,3-8.94,10.24-9.33,12.44H69.94a24.82,24.82,0,0,0-1.3-5.31m13,38.24a37.64,37.64,0,0,1-25.67,9.72,33.63,33.63,0,0,1-23.21-8.68c-7.39-7-10.11-15.94-10.11-26.06a39.55,39.55,0,0,1,2.85-15.55C28.32,82.12,36.36,70.2,55.16,70.2c14.52,0,22.17,7.52,25.54,12.44,3,4.54,6,12.45,6.35,25h-48a18.67,18.67,0,0,0,4.15,9.85c2.21,2.73,6.09,6.23,14.13,6.23s12.71-3.76,14.78-6a19.29,19.29,0,0,0,2.2-3l13.23,7.64a42.53,42.53,0,0,1-6,6.74"/><path id="Fill-3" class="cls-2" d="M186.84,137.48c-8.55,0-13-2.08-15.55-5.18a9.06,9.06,0,0,1-1.94-3.77c-.65-2.07-.79-6.61-.79-12.31V83.16H159.1v-11h9.46v-18h15.56v18H198v11H184.12v29.43c0,2.59-.39,7.52,1.56,9.59s5.57,1.95,6,1.95a24.94,24.94,0,0,0,6.35-.78v13.09a71.22,71.22,0,0,1-11.15,1"/><path id="Fill-4" class="cls-2" d="M227.57,98.59c-1.16,3.63-1.16,6.87-1.16,10.63V137h-15V72.15h15v9.2A19.9,19.9,0,0,1,230.3,76c5.18-5,13.61-5.31,15.42-5.31H247V86.66c-3.24,0-15.69,0-19.45,11.93"/><path id="Fill-5" class="cls-2" d="M295.37,104.68c-2.6,1.3-6,2.6-12.32,3.63-3.5.65-7.26.78-10.5,2.72a7.66,7.66,0,0,0-3.76,6.49c0,3.88,2.86,7.64,10.63,7.64,8.56,0,13.62-4.4,15-7.39,1-2.07.91-3.88.91-6Zm0,32.28L295,131.9a21.47,21.47,0,0,1-6,3.63,30.21,30.21,0,0,1-13.09,3c-3.12,0-14.79-.39-20.75-10a18.35,18.35,0,0,1-2.85-10.37A18.89,18.89,0,0,1,261.14,102c5.32-3.63,10.37-4.41,16.34-5.58,9.59-1.94,13.09-2.71,17.89-4.4a12.43,12.43,0,0,0-.91-5.32c-1.3-2.46-4.54-4.41-10.24-4.41-6,0-9.72,1.82-11.41,4a8.45,8.45,0,0,0-1.68,5.7l-15.82-.91a19.54,19.54,0,0,1,7-14.91c4-3.37,10.11-6,21.39-6,10.63,0,16.85,2.21,20.87,5.07a15,15,0,0,1,4.67,5.18c1.69,3.37,1.69,7.91,1.69,11.54v34.48c0,4.93.25,6.35,2.85,10.5Z"/><path id="Fill-6" class="cls-2" d="M347.47,137.48c-8.55,0-13-2.08-15.55-5.18a9.25,9.25,0,0,1-1.95-3.77c-.64-2.07-.78-6.61-.78-12.31V83.16h-9.46v-11h9.46v-18h15.56v18h13.87v11H344.75v29.43c0,2.59-.39,7.52,1.56,9.59s5.57,1.95,6,1.95a24.94,24.94,0,0,0,6.35-.78v13.09a71.22,71.22,0,0,1-11.15,1"/><path id="Fill-7" class="cls-2" d="M410.21,90.94c-1.42-3.11-4.8-8.3-13.22-8.3a15.77,15.77,0,0,0-6.48,1.17c-7.26,3-8.95,10.24-9.33,12.44h30.33a24.82,24.82,0,0,0-1.3-5.31m13,38.24a37.64,37.64,0,0,1-25.67,9.72,33.63,33.63,0,0,1-23.21-8.68c-7.39-7-10.11-15.94-10.11-26.06A39.55,39.55,0,0,1,367,88.61c2.85-6.49,10.89-18.41,29.69-18.41,14.52,0,22.17,7.52,25.54,12.44,3,4.54,6,12.45,6.35,25h-48a18.67,18.67,0,0,0,4.15,9.85c2.21,2.73,6.1,6.23,14.14,6.23s12.7-3.76,14.77-6a19.29,19.29,0,0,0,2.2-3l13.23,7.64a42.53,42.53,0,0,1-6,6.74"/><path id="Fill-8" class="cls-2" d="M484,95.22c-1-3.5-4.53-11.15-15-11.15A15.41,15.41,0,0,0,457.39,89c-4.54,4.93-4.41,10.89-4.41,13s0,7.65,4.15,12.31a15.87,15.87,0,0,0,4.15,3.12,17.34,17.34,0,0,0,7.78,1.68c6.22,0,9.72-2.46,11.54-4.4,4.4-4.41,4.4-10.12,4.4-12.19a20.81,20.81,0,0,0-1-7.26m11.93,53.54c-4,5.44-12.44,9.85-27.09,9.85s-21.65-4-25.67-9.72c-1.56-2.33-2.72-5.06-4-10.63l17.11.13a8.37,8.37,0,0,0,1.56,3.24c3.37,4.93,10.5,4.79,11.67,4.79,7.77,0,11.79-3,13.48-6.09,1.81-3.37,1.68-6.74,1.68-14-7.25,6.48-16.33,6.87-19.57,6.87a28.55,28.55,0,0,1-11.8-2.33c-6.87-3-16.2-10.76-16.2-28.52a39.47,39.47,0,0,1,2.2-13.87,28.56,28.56,0,0,1,27.1-18.28c2.2,0,8.42.26,13.74,4.15A20.1,20.1,0,0,1,484.61,79V72.14H500v53.28c0,7.52.78,16.73-4.15,23.34"/><path id="Fill-9" class="cls-2" d="M552.66,128.66c-2.33,8-5.7,21.79-11.79,26.71-4,3.24-8.17,3.89-13.23,3.89a36.18,36.18,0,0,1-9.2-.91V144.87c6.22.78,9.72,0,12-1.94a9.46,9.46,0,0,0,2.73-4.67L509.75,72.14h16.73L541,120.5l12.18-48.36h16l-16.47,56.52"/><polyline id="Fill-10" class="cls-3" points="103.64 54.19 83.68 54.19 148.28 158.35 167.86 158.35 103.64 54.19"/><path id="Fill-11" class="cls-4" d="M191.59,187.18h2.91a9,9,0,0,1-3,5.14,8,8,0,0,1-5.38,1.93,6.63,6.63,0,0,1-5.21-2c-1.18-1.31-1.76-3.24-1.76-5.8a12.28,12.28,0,0,1,.72-4.23,11.14,11.14,0,0,1,2.13-3.6,9.08,9.08,0,0,1,3-2.26,8.9,8.9,0,0,1,3.73-.77,6.74,6.74,0,0,1,4.87,1.66,6.56,6.56,0,0,1,1.82,4.76h-3a3.75,3.75,0,0,0-1.06-2.84,3.94,3.94,0,0,0-2.9-1,5.41,5.41,0,0,0-4.4,2.47,9.74,9.74,0,0,0-1.86,6,5.39,5.39,0,0,0,1.06,3.6,3.78,3.78,0,0,0,3.06,1.25,4.8,4.8,0,0,0,3.14-1.15,6.72,6.72,0,0,0,2.06-3.16"/><path id="Fill-12" class="cls-4" d="M208.14,178.17a5.12,5.12,0,0,0-2.51.61,5.7,5.7,0,0,0-1.94,1.86,10.13,10.13,0,0,0-1.32,3,12,12,0,0,0-.5,3.36,4.85,4.85,0,0,0,1.11,3.42,4.06,4.06,0,0,0,3.15,1.2,5.49,5.49,0,0,0,4.63-2.49,10.7,10.7,0,0,0,1.8-6.42,4.63,4.63,0,0,0-1.13-3.36A4.39,4.39,0,0,0,208.14,178.17Zm-9.34,8.57a11.83,11.83,0,0,1,2.71-8,8.76,8.76,0,0,1,6.94-3.13,7,7,0,0,1,5.29,2,7.48,7.48,0,0,1,1.94,5.44,11.75,11.75,0,0,1-2.71,8,8.75,8.75,0,0,1-6.94,3.13,7.08,7.08,0,0,1-5.33-2,7.48,7.48,0,0,1-1.9-5.46Z"/><path id="Fill-13" class="cls-4" d="M232.77,183a5,5,0,0,0-1.13-3.44,3.94,3.94,0,0,0-3.09-1.26A5.46,5.46,0,0,0,224,180.8a10.43,10.43,0,0,0-1.85,6.31,5.11,5.11,0,0,0,1.08,3.45,3.68,3.68,0,0,0,3,1.26,5.63,5.63,0,0,0,4.68-2.52A10.3,10.3,0,0,0,232.77,183ZM231,193.67l.36-2.18a8.35,8.35,0,0,1-2.64,2.08,6.92,6.92,0,0,1-3.05.68,6.13,6.13,0,0,1-4.83-1.93,7.79,7.79,0,0,1-1.73-5.42,13.54,13.54,0,0,1,.68-4.27,11.51,11.51,0,0,1,1.92-3.6,9.37,9.37,0,0,1,3-2.42,7.86,7.86,0,0,1,3.56-.87,6.17,6.17,0,0,1,3.23.84,6.73,6.73,0,0,1,2.36,2.48l1.94-9.48h2.85l-5,24.09Z"/><path id="Fill-14" class="cls-4" d="M243.75,173.11l.74-3.53h2.91l-.74,3.53Zm-4.39,20.56L243,176.16h3l-3.71,17.51Z"/><path id="Fill-15" class="cls-4" d="M248.11,193.67l3.72-17.51h2.68l-.58,2.61a10.18,10.18,0,0,1,3-2.21,8,8,0,0,1,3.36-.72,5.53,5.53,0,0,1,3.52,1,3.41,3.41,0,0,1,1.21,2.83,7.28,7.28,0,0,1-.08,1c-.05.37-.13.77-.23,1.22l-2.47,11.84h-3l2.44-11.41c.08-.43.15-.79.18-1.1a6.65,6.65,0,0,0,.06-.85,1.74,1.74,0,0,0-.69-1.47,3.17,3.17,0,0,0-1.93-.51,5.58,5.58,0,0,0-4.15,1.67,9.64,9.64,0,0,0-2.31,4.89l-1.85,8.78h-2.94"/><path id="Fill-16" class="cls-4" d="M277.77,178.13a5.24,5.24,0,0,0-4.43,2.38,10.51,10.51,0,0,0-1.7,6.23,5,5,0,0,0,1.1,3.46,3.92,3.92,0,0,0,3.09,1.23,5.33,5.33,0,0,0,4.54-2.41,10.74,10.74,0,0,0,1.72-6.37,4.65,4.65,0,0,0-1.14-3.32A4.19,4.19,0,0,0,277.77,178.13Zm-10.14,17.28h2.91v.27a2.28,2.28,0,0,0,1,2,4.92,4.92,0,0,0,2.83.73,5.34,5.34,0,0,0,4.07-1.39q1.27-1.39,2-5.32a6.43,6.43,0,0,1-2.27,1.7,7,7,0,0,1-2.85.57,6.42,6.42,0,0,1-5-2,7.83,7.83,0,0,1-1.8-5.49,11.71,11.71,0,0,1,2.61-7.8,8.15,8.15,0,0,1,6.5-3.1,6.14,6.14,0,0,1,3.37.87,5.55,5.55,0,0,1,2.1,2.58l.64-2.87h2.85L282.89,194a7.74,7.74,0,0,1-8.57,7,7.59,7.59,0,0,1-4.92-1.43,4.89,4.89,0,0,1-1.77-4v-.08Z"/><path id="Fill-17" class="cls-4" d="M305.31,193.67c-.42.12-.8.21-1.15.28a5.59,5.59,0,0,1-.9.1,4.42,4.42,0,0,1-2.76-.71,2.49,2.49,0,0,1-.92-2.12,4.86,4.86,0,0,1,.08-.84c0-.33.12-.77.22-1.31l2.24-10.51h-2.54l.54-2.4h2.5l1-4.76h2.94l-1,4.76h3l-.5,2.4h-3l-2.29,10.82a7.34,7.34,0,0,0-.15.73,4.21,4.21,0,0,0-.05.52.88.88,0,0,0,.35.74,1.67,1.67,0,0,0,1,.26c.28,0,.58,0,.88,0s.64-.09,1-.15l-.47,2.24"/><path id="Fill-18" class="cls-4" d="M318.84,178.17a5.09,5.09,0,0,0-2.5.61,5.72,5.72,0,0,0-1.95,1.86,10.68,10.68,0,0,0-1.32,3,11.93,11.93,0,0,0-.49,3.36,4.85,4.85,0,0,0,1.1,3.42,4.08,4.08,0,0,0,3.15,1.2,5.48,5.48,0,0,0,4.63-2.49,10.7,10.7,0,0,0,1.8-6.42,4.63,4.63,0,0,0-1.13-3.36A4.39,4.39,0,0,0,318.84,178.17Zm-9.34,8.57a11.83,11.83,0,0,1,2.71-8,8.78,8.78,0,0,1,7-3.13,7.06,7.06,0,0,1,5.29,2,7.47,7.47,0,0,1,1.93,5.44,11.79,11.79,0,0,1-2.7,8,8.77,8.77,0,0,1-6.95,3.13,7.08,7.08,0,0,1-5.33-2,7.48,7.48,0,0,1-1.9-5.46Z"/><path id="Fill-19" class="cls-4" d="M339.33,187.54h2.76a1.93,1.93,0,0,1,0,.23c0,.08,0,.21,0,.37a3.32,3.32,0,0,0,1.17,2.77,5.4,5.4,0,0,0,3.45.94,4.35,4.35,0,0,0,2.64-.71,2.29,2.29,0,0,0,1-1.95,2.08,2.08,0,0,0-.49-1.42,9.07,9.07,0,0,0-2.52-1.51l-.9-.41q-4.86-2.25-4.86-5.12a4.56,4.56,0,0,1,1.75-3.71,7.25,7.25,0,0,1,4.68-1.4,6.82,6.82,0,0,1,4.74,1.52,5.45,5.45,0,0,1,1.69,4.27v.37h-2.71v-.1a3.5,3.5,0,0,0-1-2.68,4,4,0,0,0-2.86-.9,4.39,4.39,0,0,0-2.52.63,2,2,0,0,0-.93,1.71c0,.87,1,1.75,2.91,2.63l.17.09a16.49,16.49,0,0,1,4.8,2.82,4,4,0,0,1,1,2.77,4.83,4.83,0,0,1-1.91,4,8,8,0,0,1-5.14,1.52,7.43,7.43,0,0,1-5.06-1.63,5.6,5.6,0,0,1-1.86-4.44c0-.17,0-.31,0-.41s0-.18,0-.26"/><path id="Fill-20" class="cls-4" d="M357.12,193.67l5.12-24.09h2.91l-1.9,9a9.49,9.49,0,0,1,2.88-2.06,7.93,7.93,0,0,1,3.27-.69,5.49,5.49,0,0,1,3.52,1,3.5,3.5,0,0,1,1.18,2.86,9.37,9.37,0,0,1-.07,1c0,.37-.11.74-.19,1.12l-2.52,11.86h-3l2.44-11.41a11.68,11.68,0,0,0,.21-1.16,7.72,7.72,0,0,0,.06-.92,1.55,1.55,0,0,0-.72-1.34,3.27,3.27,0,0,0-1.93-.51,5.56,5.56,0,0,0-4.14,1.67,9.57,9.57,0,0,0-2.32,4.89l-1.84,8.78h-3"/><path id="Fill-21" class="cls-4" d="M388.61,184.85a13,13,0,0,1-3.5.66,22.26,22.26,0,0,0-2.86.33,3.34,3.34,0,0,0-1.9,1,3,3,0,0,0-.62,2,2.74,2.74,0,0,0,.79,2.05,2.9,2.9,0,0,0,2.12.76,5.1,5.1,0,0,0,4.05-1.74A9.23,9.23,0,0,0,388.61,184.85Zm-.91,6.84a7.94,7.94,0,0,1-2.55,1.89,7.15,7.15,0,0,1-3,.63,5.41,5.41,0,0,1-4-1.42,5.34,5.34,0,0,1-1.43-3.94,4.87,4.87,0,0,1,1.78-4.16c1.19-.89,3.2-1.43,6-1.6l.23,0c3.17-.21,4.76-1.08,4.76-2.63a1.89,1.89,0,0,0-.79-1.68,4.7,4.7,0,0,0-2.53-.53,6.38,6.38,0,0,0-3.38.64,3.81,3.81,0,0,0-1.35,2.37h-2.91a6.12,6.12,0,0,1,2.37-4.15,8.85,8.85,0,0,1,5.27-1.37,8.69,8.69,0,0,1,4.71,1.06,3.42,3.42,0,0,1,1.66,3,5.48,5.48,0,0,1-.07.64c-.05.28-.13.76-.26,1.44l-1.61,7.42a5.24,5.24,0,0,0-.13.74,5.81,5.81,0,0,0-.05.72.89.89,0,0,0,.31.72,1.42,1.42,0,0,0,.9.25,2.1,2.1,0,0,0,.36,0,2.53,2.53,0,0,0,.38-.07l-.44,2a5.31,5.31,0,0,1-.83.15,10.35,10.35,0,0,1-1,.05,2.56,2.56,0,0,1-1.78-.55,2.09,2.09,0,0,1-.6-1.63Z"/><path id="Fill-22" class="cls-4" d="M395.64,193.67l3.68-17.51h2.81l-.73,3.25a12.7,12.7,0,0,1,2.58-2.89,3.94,3.94,0,0,1,2.37-.8l.63,0,.71.1-.73,3.32h-.08c-.4,0-.69-.06-.89-.06a4.57,4.57,0,0,0-3.56,1.52,9.78,9.78,0,0,0-2.06,4.64l-1.82,8.41h-2.91"/><path id="Fill-23" class="cls-4" d="M411.89,183.35h9.6a1.57,1.57,0,0,0,.05-.3v-.47a4.62,4.62,0,0,0-1.07-3.24,3.76,3.76,0,0,0-2.92-1.17,5.11,5.11,0,0,0-3.59,1.35A7.27,7.27,0,0,0,411.89,183.35Zm11.8,4.6a7.6,7.6,0,0,1-2.81,4.62,8.52,8.52,0,0,1-5.37,1.68,6.86,6.86,0,0,1-5.29-2,8,8,0,0,1-1.84-5.67,12,12,0,0,1,2.56-7.94,8.24,8.24,0,0,1,6.61-3.08,6.62,6.62,0,0,1,7.1,7.1,13.47,13.47,0,0,1-.07,1.36c0,.5-.1,1.07-.19,1.7h-13v.08c-.05.48-.07.82-.07,1a5.07,5.07,0,0,0,1.17,3.61,4.43,4.43,0,0,0,3.39,1.24,4.83,4.83,0,0,0,3.06-1,4.92,4.92,0,0,0,1.72-2.74Z"/><path id="Fill-24" class="cls-4" d="M588.88,77.31h-2.09V81.8H589a5.08,5.08,0,0,0,2.63-.51,1.8,1.8,0,0,0,.79-1.64,2,2,0,0,0-.82-1.78A4.91,4.91,0,0,0,588.88,77.31Zm.46-1.65a7.7,7.7,0,0,1,4.24.94A3.07,3.07,0,0,1,595,79.37a3.59,3.59,0,0,1-.81,2.4A3.88,3.88,0,0,1,591.91,83l3,6.19h-2.87l-2.76-5.79h-2.52v5.79h-2.56V75.66Zm10.1,7.12a10.93,10.93,0,0,0-.75-4.06,9.74,9.74,0,0,0-2.21-3.34,10.23,10.23,0,0,0-3.38-2.29,10.83,10.83,0,0,0-8,0,9.49,9.49,0,0,0-3.26,2.18,11,11,0,0,0-2.35,3.47,10.14,10.14,0,0,0-.81,4,10,10,0,0,0,.78,3.89,10.5,10.5,0,0,0,2.27,3.36,10.2,10.2,0,0,0,3.35,2.29,10,10,0,0,0,3.9.8,10.6,10.6,0,0,0,4-.77A11.33,11.33,0,0,0,596.43,90a10.16,10.16,0,0,0,2.23-3.28A9.88,9.88,0,0,0,599.44,82.78ZM589,70.72a12.06,12.06,0,0,1,4.64.9,12,12,0,0,1,6.45,15.65,11.13,11.13,0,0,1-2.59,3.8,12.66,12.66,0,0,1-4,2.64,11.72,11.72,0,0,1-4.54.91,11.54,11.54,0,0,1-4.54-.91A12.59,12.59,0,0,1,578,87.17a11.84,11.84,0,0,1,0-9.08,12.42,12.42,0,0,1,2.68-4,11,11,0,0,1,3.76-2.53,12,12,0,0,1,4.54-.86Z"/></g></g></g></svg>